# xmcd
#
# Track frame offsets: 
#        150
#        10162
#        25160
#        40437
#        54225
#        65747
#        77292
#        92842
#        102502
#        111107
#        121847
#        136402
#        146735
#        166735
#
# Disc length: 2419 seconds
#
# Revision: 0
# Processed by: cddbd v1.5.2PL0 Copyright (c) Steve Scherf et al.
# Submitted via: ExactAudioCopy v0.99pb3
#
DISCID=b409710e
DTITLE=Erik Hokkanen and Erik Moll - Erik and Erik
DYEAR=1992
DGENRE=Country
TTITLE0=Tornado Warning
TTITLE1=Goin' Down To Ruby's
TTITLE2=Wolf At Night
TTITLE3=All I Remember
TTITLE4=Milky Way Jive
TTITLE5=Fire Ant Dance
TTITLE6=Ghost Town In My Heart
TTITLE7=My Lady-O
TTITLE8=Swing The Night Away
TTITLE9=Letters and Telephone Wire
TTITLE10=It Ain't Over Till It's Over
TTITLE11=Ready For Someone New
TTITLE12=Silent Reverie
TTITLE13=Blues For Brown
EXTD=
EXTT0=
EXTT1=
EXTT2=
EXTT3=
EXTT4=
EXTT5=
EXTT6=
EXTT7=
EXTT8=
EXTT9=
EXTT10=
EXTT11=
EXTT12=
EXTT13=
PLAYORDER=
